<?xml version="1.0" encoding="utf-8"?>
<!-- Generator: Adobe Illustrator 16.0.4, SVG Export Plug-In . SVG Version: 6.00 Build 0)  -->
<!DOCTYPE svg PUBLIC "-//W3C//DTD SVG 1.0//EN" "http://www.w3.org/TR/2001/REC-SVG-20010904/DTD/svg10.dtd">
<svg version="1.0" id="Layer_1" xmlns="http://www.w3.org/2000/svg" xmlns:xlink="http://www.w3.org/1999/xlink" x="0px" y="0px"
	 width="512px" height="512px" viewBox="0 0 512 512" enable-background="new 0 0 512 512" xml:space="preserve">
<rect fill="#363151" width="512" height="512"/>
<g>
	<g id="Crown">
		<circle fill="#FFFFFF" cx="182.037" cy="166.167" r="5.054"/>
		<circle fill="#FFFFFF" cx="227.291" cy="156.176" r="5.054"/>
		<path fill="#FFFFFF" d="M362.876,123.571c6.389,9.87,10.615,20.653,1.763,32.324c-7.973-2.524-10.67-11.809-12.342-22.333
			l-15.28,27.622c9.585-4.374,18.267-8.97,24.684-0.895c-9.742,13.488-36.767,29.191-44.905,6.625
			c0.852-1.262,1.511-2.732,1.893-4.353c0.8-3.406,0.232-6.763-1.323-9.256c6.932-18.027,16.355-11.975,21.69-3.361
			c0.32-9.589,1.499-22.841-18.862-10.229c4.415-10.56,2.805-28.331,0.975-28.762c-1.832-0.43-11.206,14.769-11.958,26.19
			c-12.609-20.36-17.467-7.976-21.451,0.753c8.614-5.336,19.77-6.555,17.943,12.672c-2.502,1.54-4.524,4.289-5.325,7.696
			c-0.379,1.609-0.453,3.202-0.258,4.702c-23.048,7.902-28.926,2.025-40.68-21.483v-10.281c1.175-0.297,1.175-0.885,1.47-2.057
			c11.239-0.064,15.25,6.792,19.688,13.821v-31.149c-4.373,7.995-9.422,13.713-19.688,13.214c-0.295-1.179-0.295-1.766-1.47-2.057
			c1.593-10.724,5.983-15.422,16.456-20.561l-19.806-0.009l0,0H256h-0.088l0,0l-19.806,0.009
			c10.472,5.139,14.863,9.837,16.456,20.561c-1.175,0.291-1.175,0.878-1.469,2.057c-10.266,0.5-15.316-5.219-19.688-13.214v31.149
			c4.437-7.028,8.449-13.885,19.688-13.821c0.294,1.172,0.294,1.76,1.469,2.057v10.281c-11.754,23.508-17.631,29.386-40.68,21.482
			c0.195-1.5,0.121-3.092-0.258-4.702c-0.8-3.406-2.823-6.155-5.326-7.695c-1.825-19.227,9.329-18.008,17.943-12.673
			c-3.984-8.728-8.84-21.113-21.451-0.752c-0.752-11.421-10.125-26.621-11.957-26.19c-1.832,0.431-3.442,18.202,0.973,28.761
			c-20.361-12.611-19.183,0.641-18.862,10.23c5.336-8.614,14.759-14.666,21.69,3.361c-1.555,2.494-2.123,5.851-1.322,9.256
			c0.38,1.621,1.04,3.091,1.892,4.353c-8.138,22.567-35.162,6.864-44.903-6.624c6.417-8.075,15.099-3.479,24.684,0.895
			l-15.28-27.622c-1.673,10.524-4.37,19.809-12.342,22.333c-8.853-11.671-4.627-22.454,1.763-32.324l-20.57,11.754l39.377,67.586
			c25.646-16.725,56.943-24.607,87.98-24.106v0.001c0.029-0.001,0.059,0,0.088-0.001c0.03,0.001,0.059,0,0.088,0.001v-0.001
			c31.037-0.5,62.335,7.381,87.98,24.106l39.376-67.586L362.876,123.571z"/>
		<circle fill="#FFFFFF" cx="329.963" cy="166.167" r="5.054"/>
		<circle fill="#FFFFFF" cx="284.71" cy="156.176" r="5.054"/>
	</g>
	<path id="Portcullis" fill="#FFFFFF" d="M256.088,198.21h-0.176H163.23v206.286h9.991c0,0,14.692-38.789,14.692-41.729
		c0-0.816-1.175-1.174-4.702-1.174v-20.572h20.57v21.746h-4.702l15.281,39.377l15.28-39.377h-4.702v-21.746h20.57v21.746h-4.702
		l15.104,38.924v0.453l0.088-0.227l0.088,0.227v-0.453l15.104-38.922h-4.702v-21.746h20.57v21.746h-4.702l15.28,39.375l15.28-39.377
		h-4.701v-21.746h20.569v20.572c-3.525,0-4.701,0.357-4.701,1.174c0,2.939,14.692,41.729,14.692,41.729h9.991V198.21H256.088
		L256.088,198.21z M173.222,335.734c-2.92,0-5.29-2.369-5.29-5.291c0-2.918,2.37-5.289,5.29-5.289c2.919,0,5.289,2.371,5.289,5.289
		C178.511,333.365,176.141,335.734,173.222,335.734z M173.222,294.006c-2.92,0-5.29-2.369-5.29-5.289s2.37-5.289,5.29-5.289
		c2.919,0,5.289,2.369,5.289,5.289S176.141,294.006,173.222,294.006z M173.222,253.455c-2.92,0-5.29-2.37-5.29-5.29
		c0-2.919,2.37-5.29,5.29-5.29c2.919,0,5.289,2.37,5.289,5.29C178.511,251.085,176.141,253.455,173.222,253.455z M173.222,214.078
		c-2.92,0-5.29-2.37-5.29-5.29c0-2.919,2.37-5.289,5.29-5.289c2.919,0,5.289,2.37,5.289,5.289
		C178.511,211.708,176.141,214.078,173.222,214.078z M203.782,319.865h-20.57v-20.569h20.57V319.865z M203.782,278.139h-20.57
		v-18.808h20.57V278.139z M203.782,238.174h-20.57v-18.807h20.57V238.174z M214.361,335.734c-2.92,0-5.29-2.369-5.29-5.291
		c0-2.918,2.37-5.289,5.29-5.289c2.919,0,5.289,2.371,5.289,5.289C219.65,333.365,217.281,335.734,214.361,335.734z
		 M214.361,294.006c-2.92,0-5.29-2.369-5.29-5.289s2.37-5.289,5.29-5.289c2.919,0,5.289,2.369,5.289,5.289
		S217.281,294.006,214.361,294.006z M214.361,253.455c-2.92,0-5.29-2.37-5.29-5.29c0-2.919,2.37-5.29,5.29-5.29
		c2.919,0,5.289,2.37,5.289,5.29C219.65,251.085,217.281,253.455,214.361,253.455z M214.361,214.078c-2.92,0-5.29-2.37-5.29-5.29
		c0-2.919,2.37-5.289,5.29-5.289c2.919,0,5.289,2.37,5.289,5.289C219.65,211.708,217.281,214.078,214.361,214.078z M245.51,319.865
		h-20.57v-20.569h20.57V319.865z M245.51,278.139h-20.57v-18.808h20.57V278.139z M245.51,238.174h-20.57v-18.807h20.57V238.174z
		 M256,335.729c-2.877-0.047-5.201-2.393-5.201-5.285c0-2.889,2.322-5.236,5.201-5.283c2.879,0.047,5.202,2.395,5.202,5.283
		C261.201,333.334,258.879,335.682,256,335.729z M256,294.002c-2.877-0.047-5.201-2.395-5.201-5.285c0-2.89,2.322-5.236,5.201-5.285
		c2.879,0.049,5.202,2.396,5.202,5.285C261.201,291.607,258.879,293.955,256,294.002z M256,253.451
		c-2.877-0.047-5.201-2.396-5.201-5.286c0-2.89,2.322-5.238,5.201-5.285c2.879,0.047,5.202,2.395,5.202,5.285
		C261.201,251.055,258.879,253.403,256,253.451z M256,214.074c-2.877-0.048-5.201-2.395-5.201-5.286c0-2.89,2.322-5.237,5.201-5.285
		c2.879,0.048,5.202,2.396,5.202,5.285C261.201,211.679,258.879,214.026,256,214.074z M287.061,319.865h-20.57v-20.569h20.57
		V319.865z M287.061,278.139h-20.57v-18.808h20.57V278.139z M287.061,238.174h-20.57v-18.807h20.57V238.174z M297.64,335.734
		c-2.92,0-5.29-2.369-5.29-5.291c0-2.918,2.37-5.289,5.29-5.289c2.919,0,5.289,2.371,5.289,5.289
		C302.929,333.365,300.559,335.734,297.64,335.734z M297.64,294.006c-2.92,0-5.29-2.369-5.29-5.289s2.37-5.289,5.29-5.289
		c2.919,0,5.289,2.369,5.289,5.289S300.559,294.006,297.64,294.006z M297.64,253.455c-2.92,0-5.29-2.37-5.29-5.29
		c0-2.919,2.37-5.29,5.29-5.29c2.919,0,5.289,2.37,5.289,5.29C302.929,251.085,300.559,253.455,297.64,253.455z M297.64,214.078
		c-2.92,0-5.29-2.37-5.29-5.29c0-2.919,2.37-5.289,5.29-5.289c2.919,0,5.289,2.37,5.289,5.289
		C302.929,211.708,300.559,214.078,297.64,214.078z M328.788,319.865h-20.569v-20.569h20.569V319.865z M328.788,278.139h-20.569
		v-18.808h20.569V278.139z M328.788,238.174h-20.569v-18.807h20.569V238.174z M338.779,335.734c-2.919,0-5.289-2.369-5.289-5.291
		c0-2.918,2.37-5.289,5.289-5.289s5.289,2.371,5.289,5.289C344.068,333.365,341.698,335.734,338.779,335.734z M338.779,294.006
		c-2.919,0-5.289-2.369-5.289-5.289s2.37-5.289,5.289-5.289s5.289,2.369,5.289,5.289S341.698,294.006,338.779,294.006z
		 M338.779,253.455c-2.919,0-5.289-2.37-5.289-5.29c0-2.919,2.37-5.29,5.289-5.29s5.289,2.37,5.289,5.29
		C344.068,251.085,341.698,253.455,338.779,253.455z M338.779,214.078c-2.919,0-5.289-2.37-5.289-5.29
		c0-2.919,2.37-5.289,5.289-5.289s5.289,2.37,5.289,5.289C344.068,211.708,341.698,214.078,338.779,214.078z"/>
	<g>
		<path fill="#FFFFFF" d="M374.247,224.468c-9.139,0-16.573-7.435-16.573-16.574h4.349c0,6.741,5.483,12.225,12.225,12.225
			l0.089-0.002v2.175l0.043,2.174L374.247,224.468z"/>
		<path fill="#FFFFFF" d="M374.35,224.465l-0.027-4.349c6.699-0.04,12.149-5.523,12.149-12.222c0-6.74-5.483-12.224-12.225-12.224
			s-12.225,5.484-12.225,12.224h-4.349c0-9.138,7.435-16.573,16.573-16.573s16.573,7.435,16.573,16.573
			C390.82,216.977,383.432,224.411,374.35,224.465z"/>
		<rect x="359.849" y="205.72" fill="#FFFFFF" width="8.316" height="4.349"/>
		<rect x="348.477" y="205.72" fill="#FFFFFF" width="11.372" height="4.349"/>
		<path fill="#FFFFFF" d="M374.336,270.896h-8.346c-3.209,0-5.818-2.61-5.818-5.818v-23.861c0-3.208,2.609-5.818,5.818-5.818h8.346
			v4.349h-8.346c-0.811,0-1.47,0.659-1.47,1.469v23.861c0,0.811,0.659,1.47,1.47,1.47h8.346V270.896z"/>
		<path fill="#FFFFFF" d="M382.799,270.896h-8.463v-4.349h8.463c0.81,0,1.469-0.659,1.469-1.47v-23.861
			c0-0.81-0.659-1.469-1.469-1.469h-8.463v-4.349h8.463c3.208,0,5.817,2.61,5.817,5.818v23.861
			C388.616,268.286,386.007,270.896,382.799,270.896z"/>
		<rect x="372.162" y="237.574" fill="#FFFFFF" width="4.348" height="4.408"/>
		<rect x="372.162" y="222.291" fill="#FFFFFF" width="4.348" height="15.283"/>
		<rect x="372.162" y="217.885" fill="#FFFFFF" width="4.348" height="4.406"/>
		<path fill="#FFFFFF" d="M374.336,318.736h-8.346c-3.209,0-5.818-2.609-5.818-5.818v-23.861c0-3.209,2.609-5.818,5.818-5.818h8.346
			v4.35h-8.346c-0.811,0-1.47,0.658-1.47,1.469v23.861c0,0.811,0.659,1.469,1.47,1.469h8.346V318.736z"/>
		<path fill="#FFFFFF" d="M382.799,318.736h-8.463v-4.35h8.463c0.81,0,1.469-0.658,1.469-1.469v-23.861
			c0-0.811-0.659-1.469-1.469-1.469h-8.463v-4.35h8.463c3.208,0,5.817,2.609,5.817,5.818v23.861
			C388.616,316.127,386.007,318.736,382.799,318.736z"/>
		<rect x="372.162" y="265.725" fill="#FFFFFF" width="4.348" height="2.998"/>
		<rect x="372.162" y="268.723" fill="#FFFFFF" width="4.348" height="16.69"/>
		<rect x="372.162" y="285.413" fill="#FFFFFF" width="4.348" height="4.408"/>
		<path fill="#FFFFFF" d="M374.336,366.281h-8.346c-3.209,0-5.818-2.609-5.818-5.818v-23.861c0-3.207,2.609-5.818,5.818-5.818h8.346
			v4.35h-8.346c-0.811,0-1.47,0.658-1.47,1.469v23.861c0,0.811,0.659,1.471,1.47,1.471h8.346V366.281z"/>
		<path fill="#FFFFFF" d="M382.799,366.281h-8.463v-4.348h8.463c0.81,0,1.469-0.66,1.469-1.471v-23.861
			c0-0.811-0.659-1.469-1.469-1.469h-8.463v-4.35h8.463c3.208,0,5.817,2.611,5.817,5.818v23.861
			C388.616,363.672,386.007,366.281,382.799,366.281z"/>
		<rect x="372.162" y="332.959" fill="#FFFFFF" width="4.348" height="4.408"/>
		<rect x="372.162" y="316.562" fill="#FFFFFF" width="4.348" height="16.396"/>
		<rect x="372.162" y="313.271" fill="#FFFFFF" width="4.348" height="3.291"/>
		<path fill="#FFFFFF" d="M374.247,409.596c-9.139,0-16.573-7.434-16.573-16.572s7.435-16.574,16.573-16.574l0.126,0.002
			c9.059,0.055,16.447,7.488,16.447,16.572C390.82,402.162,383.386,409.596,374.247,409.596z M374.209,380.797
			c-6.703,0-12.187,5.484-12.187,12.227c0,6.74,5.483,12.225,12.225,12.225s12.225-5.484,12.225-12.225
			c0-6.699-5.45-12.182-12.149-12.223L374.209,380.797z"/>
		<rect x="372.162" y="360.111" fill="#FFFFFF" width="4.348" height="3.996"/>
		<rect x="372.162" y="378.625" fill="#FFFFFF" width="4.348" height="5.582"/>
		<rect x="372.162" y="364.107" fill="#FFFFFF" width="4.348" height="14.518"/>
		<g>
			<path fill="#FFFFFF" d="M137.753,224.468l-0.127-0.002c-9.057-0.055-16.447-7.488-16.447-16.571
				c0-9.138,7.435-16.573,16.574-16.573c9.138,0,16.573,7.435,16.573,16.573C154.327,217.033,146.892,224.468,137.753,224.468z
				 M137.753,195.67c-6.741,0-12.225,5.484-12.225,12.224c0,6.699,5.45,12.182,12.149,12.222l0.099,0.002
				c6.729-0.013,12.201-5.492,12.201-12.225C149.978,201.154,144.494,195.67,137.753,195.67z"/>
			<rect x="143.836" y="205.72" fill="#FFFFFF" width="8.316" height="4.349"/>
			<rect x="152.152" y="205.72" fill="#FFFFFF" width="11.372" height="4.349"/>
			<path fill="#FFFFFF" d="M146.011,270.896h-16.809c-3.208,0-5.818-2.61-5.818-5.818v-23.861c0-3.208,2.61-5.818,5.818-5.818
				h16.809c3.208,0,5.818,2.61,5.818,5.818v23.861C151.829,268.286,149.219,270.896,146.011,270.896z M129.202,239.748
				c-0.811,0-1.469,0.659-1.469,1.469v23.861c0,0.811,0.659,1.47,1.469,1.47h16.809c0.81,0,1.469-0.659,1.469-1.47v-23.861
				c0-0.81-0.659-1.469-1.469-1.469H129.202z"/>
			<rect x="135.49" y="217.885" fill="#FFFFFF" width="4.349" height="4.406"/>
			<rect x="135.49" y="222.291" fill="#FFFFFF" width="4.349" height="15.283"/>
			<rect x="135.49" y="237.574" fill="#FFFFFF" width="4.349" height="4.408"/>
			<path fill="#FFFFFF" d="M146.011,318.736h-16.809c-3.208,0-5.818-2.609-5.818-5.818v-23.861c0-3.209,2.61-5.818,5.818-5.818
				h16.809c3.208,0,5.818,2.609,5.818,5.818v23.861C151.829,316.127,149.219,318.736,146.011,318.736z M129.202,287.588
				c-0.811,0-1.469,0.658-1.469,1.469v23.861c0,0.811,0.659,1.469,1.469,1.469h16.809c0.81,0,1.469-0.658,1.469-1.469v-23.861
				c0-0.811-0.659-1.469-1.469-1.469H129.202z"/>
			<rect x="135.49" y="268.723" fill="#FFFFFF" width="4.349" height="16.69"/>
			<rect x="135.49" y="285.413" fill="#FFFFFF" width="4.349" height="4.408"/>
			<rect x="135.49" y="265.725" fill="#FFFFFF" width="4.349" height="2.998"/>
			<path fill="#FFFFFF" d="M146.011,366.281h-8.346v-4.348h8.346c0.81,0,1.469-0.66,1.469-1.471v-23.861
				c0-0.811-0.659-1.469-1.469-1.469h-8.346v-4.35h8.346c3.208,0,5.818,2.611,5.818,5.818v23.861
				C151.829,363.672,149.219,366.281,146.011,366.281z"/>
			<path fill="#FFFFFF" d="M137.665,366.281h-8.463c-3.208,0-5.818-2.609-5.818-5.818v-23.861c0-3.207,2.61-5.818,5.818-5.818h8.463
				v4.35h-8.463c-0.811,0-1.469,0.658-1.469,1.469v23.861c0,0.811,0.659,1.471,1.469,1.471h8.463V366.281z"/>
			<rect x="135.49" y="313.271" fill="#FFFFFF" width="4.349" height="3.291"/>
			<rect x="135.49" y="316.562" fill="#FFFFFF" width="4.349" height="16.396"/>
			<rect x="135.49" y="332.959" fill="#FFFFFF" width="4.349" height="4.408"/>
			<path fill="#FFFFFF" d="M137.753,409.596c-9.139,0-16.574-7.434-16.574-16.572c0-9.084,7.39-16.518,16.472-16.572l0.102-0.002
				c9.138,0,16.573,7.436,16.573,16.574S146.892,409.596,137.753,409.596z M137.753,380.797l-0.088,0.004
				c-6.686,0.041-12.136,5.523-12.136,12.223c0,6.74,5.484,12.225,12.225,12.225c6.74,0,12.224-5.484,12.224-12.225
				C149.978,386.281,144.494,380.797,137.753,380.797z"/>
			<rect x="135.49" y="364.107" fill="#FFFFFF" width="4.349" height="14.518"/>
			<rect x="135.49" y="360.111" fill="#FFFFFF" width="4.349" height="3.996"/>
			<rect x="135.49" y="378.625" fill="#FFFFFF" width="4.349" height="5.582"/>
		</g>
	</g>
</g>
</svg>
