<?xml version="1.0" encoding="utf-8"?>
<!-- Generator: Adobe Illustrator 16.0.4, SVG Export Plug-In . SVG Version: 6.00 Build 0)  -->
<!DOCTYPE svg PUBLIC "-//W3C//DTD SVG 1.1//EN" "http://www.w3.org/Graphics/SVG/1.1/DTD/svg11.dtd">
<svg version="1.1" id="Layer_1" xmlns="http://www.w3.org/2000/svg" xmlns:xlink="http://www.w3.org/1999/xlink" x="0px" y="0px"
	 width="512px" height="512px" viewBox="0 0 512 512" enable-background="new 0 0 512 512" xml:space="preserve">
<rect fill="#363151" width="512" height="512"/>
<g>
	<path fill="#FFFFFF" d="M360.75,121.305l-3.118,1.604c3.761,7.219,4.598,15.608,2.34,23.427c-3.877-2.925-6.614-7.106-7.75-11.828
		l-3.117,1.604c-2.506,9.472-6.517,18.479-11.873,26.683l0.869,3.347c3.235-1.657,6.82-2.522,10.454-2.522
		c1.246,0.006,2.484,0.114,3.714,0.322c-4.521,10.734-16.886,15.773-27.62,11.253c-4.595-1.934-8.357-5.434-10.615-9.878
		c2.56-1.204,4.42-3.522,5.044-6.281c0.869-3.988-1.652-5.869-0.78-9.903c0.92-3.997,4.91-6.489,8.906-5.566
		c2.966,0.684,5.214,3.108,5.672,6.116c4.521-2.65,6.039-8.465,3.389-12.986c-2.652-4.521-8.465-6.038-12.987-3.387
		c-0.715,0.419-1.371,0.93-1.956,1.52c1.372-2.048,2.352-4.334,2.889-6.739c1.192-5.787-0.18-11.805-3.758-16.505
		c-5.412,2.779-9.307,7.818-10.636,13.754c-0.531,2.41-0.608,4.896-0.229,7.335c-1.837-4.909-7.303-7.4-12.214-5.563
		c-4.91,1.836-7.401,7.305-5.564,12.212c0.267,0.712,0.617,1.388,1.045,2.016c2.239-3.437,6.841-4.406,10.276-2.166
		c2.515,1.638,3.795,4.626,3.248,7.576c-0.871,3.989-3.989,4.585-4.86,8.665c-0.478,2.261-0.085,4.619,1.101,6.603l0.505,0.779
		c-10.684,8.331-26.094,6.425-34.426-4.257c-3.313-4.249-5.135-9.472-5.186-14.86v-2.2c7.571,1.204,14.499,4.976,19.622,10.682
		l2.612-2.613v-29.388l-2.659-2.659c-5.116,5.68-12.026,9.434-19.575,10.636c-0.023-10.455,7.029-19.601,17.146-22.235l-2.704-2.705
		c-7.275-0.519-14.611-0.779-22.007-0.779s-14.732,0.261-22.006,0.779l-2.704,2.705c10.1,2.631,17.148,11.752,17.146,22.19
		c-7.55-1.203-14.459-4.957-19.577-10.636l-2.658,2.658v29.341l2.613,2.613c5.122-5.706,12.05-9.477,19.622-10.682v2.292
		c-0.006,13.546-10.991,24.523-24.537,24.518c-5.402-0.001-10.652-1.787-14.937-5.08l0.413-0.825
		c1.198-1.996,1.592-4.372,1.101-6.646c-0.87-3.99-3.988-4.585-4.86-8.665c-0.875-4.008,1.664-7.966,5.672-8.841
		c3.015-0.658,6.122,0.616,7.807,3.202c2.949-4.333,1.828-10.236-2.505-13.185c-4.333-2.949-10.237-1.828-13.185,2.505
		c-0.428,0.627-0.778,1.304-1.043,2.015c0.362-2.441,0.27-4.929-0.276-7.335c-1.327-5.936-5.224-10.975-10.636-13.754
		c-3.747,4.781-5.174,10.979-3.896,16.917c0.538,2.405,1.517,4.691,2.887,6.739c-3.682-3.73-9.69-3.769-13.42-0.086
		s-3.769,9.69-0.087,13.421c0.583,0.589,1.24,1.101,1.955,1.519c0.618-4.055,4.407-6.841,8.461-6.222
		c3.009,0.458,5.433,2.707,6.118,5.672c0.871,3.988-1.651,5.867-0.78,9.902c0.622,2.759,2.483,5.077,5.042,6.281
		c-5.447,10.295-18.208,14.225-28.503,8.777c-4.248-2.247-7.6-5.877-9.502-10.29c1.227-0.208,2.469-0.314,3.714-0.32
		c3.635-0.001,7.218,0.864,10.453,2.521l0.872-3.347c-5.448-8.216-9.534-17.256-12.104-26.773l-2.934-1.788
		c-1.133,4.722-3.873,8.903-7.748,11.828c-2.259-7.819-1.422-16.208,2.338-23.427l-3.118-1.604
		c-5.456,1.88-12.836,4.86-18.338,7.244l31.45,70.648c58.307-25.885,124.845-25.885,183.151,0l31.542-70.648
		C373.588,126.165,366.204,123.185,360.75,121.305z"/>
	<path fill="#FFFFFF" d="M388.897,253.707c0.26-8.467-5.499-15.934-13.754-17.834v-10.178c9.854-2.353,15.93-12.244,13.579-22.095
		c-2.001-8.374-9.555-14.229-18.164-14.076c-8.47-0.278-15.948,5.49-17.832,13.752H159.167c-1.9-8.252-9.37-14.013-17.834-13.752
		c-9.845-0.283-18.055,7.469-18.338,17.314c-0.01,0.341-0.01,0.682,0,1.023c-0.26,8.465,5.5,15.933,13.753,17.833v10.223
		c-9.836,2.412-15.856,12.34-13.445,22.178c1.627,6.637,6.808,11.818,13.445,13.445v10.225c-9.836,2.408-15.856,12.34-13.445,22.174
		c1.627,6.637,6.808,11.82,13.445,13.447v10.223c-9.836,2.412-15.856,12.34-13.445,22.178c1.627,6.635,6.808,11.818,13.445,13.445
		v10.221c-9.824,2.465-15.794,12.422-13.332,22.246c2.055,8.207,9.457,13.941,17.916,13.881c10.126,0.18,18.481-7.883,18.661-18.01
		c0.153-8.607-5.703-16.162-14.077-18.16v-10.178c9.837-2.412,15.857-12.34,13.445-22.178c-1.626-6.637-6.808-11.818-13.445-13.445
		v-10.223c9.837-2.412,15.857-12.34,13.445-22.178c-1.626-6.637-6.808-11.816-13.445-13.443v-10.225
		c9.837-2.41,15.857-12.34,13.445-22.178c-1.626-6.636-6.808-11.818-13.445-13.445v-10.223c6.607-1.483,11.766-6.642,13.25-13.249
		h9.673V409.58h2.109c4.678-14.045,11.717-27.193,20.813-38.875v-2.383h-9.168v-27.508h22.922v27.508h-4.584v2.52
		c6.103,12.236,10.425,25.281,12.836,38.738h1.788c2.426-13.461,6.764-26.506,12.883-38.738v-2.52h-4.585v-27.508h22.923v27.508
		h-4.585v2.52c6.104,12.236,10.426,25.281,12.838,38.738h1.788c2.426-13.461,6.762-26.506,12.881-38.738v-2.52h-4.583v-27.508
		h22.922v27.508h-4.583v2.52c6.1,12.236,10.424,25.281,12.835,38.738h1.788c2.426-13.461,6.766-26.506,12.885-38.738v-2.52h-4.586
		v-27.508H329.3v27.508h-9.171v2.383c9.098,11.682,16.135,24.83,20.814,38.875h2.11V212.446h9.673
		c1.473,6.611,6.638,11.775,13.249,13.249v10.223c-9.837,2.412-15.857,12.34-13.445,22.178c1.627,6.637,6.811,11.818,13.445,13.445
		v10.225c-9.837,2.408-15.857,12.34-13.445,22.174c1.627,6.637,6.811,11.82,13.445,13.447v10.223
		c-9.837,2.412-15.857,12.34-13.445,22.178c1.627,6.635,6.811,11.818,13.445,13.445v10.221c-9.807,2.535-15.703,12.537-13.17,22.344
		c2.529,9.807,12.532,15.701,22.338,13.17c9.807-2.531,15.706-12.535,13.172-22.342c-1.668-6.459-6.712-11.502-13.172-13.172
		v-10.221c9.837-2.412,15.857-12.34,13.448-22.178c-1.627-6.637-6.811-11.818-13.448-13.445v-10.223
		c9.837-2.412,15.857-12.34,13.448-22.178c-1.627-6.637-6.811-11.816-13.448-13.443v-10.225
		C383.398,269.641,389.157,262.17,388.897,253.707z M150.502,391.244c0.287,4.777-3.353,8.881-8.129,9.168
		c-0.346,0.021-0.694,0.021-1.04,0c-5.059,0.234-9.349-3.678-9.582-8.738c-0.166-3.594,1.789-6.957,4.998-8.592
		c0.48,2.133,2.399,3.631,4.584,3.576c2.185,0.055,4.104-1.443,4.584-3.576C148.91,384.672,150.701,387.859,150.502,391.244z
		 M150.502,345.396c0.199,3.383-1.593,6.57-4.585,8.162c-0.48-2.135-2.399-3.629-4.584-3.576c-2.185-0.053-4.104,1.441-4.584,3.576
		c-4.52-2.652-6.032-8.471-3.378-12.99c0.819-1.395,1.983-2.559,3.378-3.377c0.462,2.15,2.385,3.67,4.584,3.623
		c2.185,0.051,4.104-1.445,4.584-3.576C148.91,338.828,150.701,342.016,150.502,345.396z M150.502,299.551
		c0.199,3.383-1.593,6.572-4.585,8.16c-0.48-2.131-2.399-3.627-4.584-3.576c-2.185-0.051-4.104,1.445-4.584,3.576
		c-4.52-2.652-6.032-8.469-3.378-12.986c0.819-1.396,1.983-2.559,3.378-3.377c0.462,2.15,2.385,3.668,4.584,3.619
		c2.185,0.055,4.104-1.441,4.584-3.576C148.91,292.98,150.701,296.172,150.502,299.551z M145.917,216.021
		c-0.48-2.133-2.399-3.629-4.584-3.576c-2.185-0.054-4.104,1.443-4.584,3.576c-4.513-2.298-6.307-7.819-4.009-12.332
		c1.635-3.209,4.997-5.164,8.594-4.998c5.059-0.234,9.348,3.679,9.582,8.737C151.081,211.026,149.126,214.387,145.917,216.021z
		 M205.517,327.059h-22.922v-27.508h22.922V327.059z M205.517,285.799h-22.922v-27.508h22.922V285.799z M205.517,244.537h-22.922
		V217.03h22.922V244.537z M246.778,327.059h-22.923v-27.508h22.923V327.059z M246.778,285.799h-22.923v-27.508h22.923V285.799z
		 M246.778,244.537h-22.923V217.03h22.923V244.537z M288.038,327.059h-22.922v-27.508h22.922V327.059z M288.038,285.799h-22.922
		v-27.508h22.922V285.799z M288.038,244.537h-22.922V217.03h22.922V244.537z M329.3,327.059h-22.923v-27.508H329.3V327.059z
		 M329.3,285.799h-22.923v-27.508H329.3V285.799z M329.3,244.537h-22.923V217.03H329.3V244.537z M361.393,207.861
		c0.121-5.062,4.323-9.068,9.386-8.945c5.062,0.123,9.067,4.325,8.946,9.388c-0.079,3.195-1.813,6.119-4.581,7.717
		c0-2.532-2.052-4.584-4.585-4.584c-2.528,0-4.583,2.052-4.583,4.584C362.981,214.432,361.191,211.243,361.393,207.861z
		 M379.729,391.244c-0.122,5.062-4.326,9.068-9.389,8.943c-5.062-0.123-9.065-4.326-8.943-9.387
		c0.074-3.195,1.811-6.119,4.578-7.719c0,2.531,2.055,4.586,4.583,4.586c2.533,0,4.585-2.055,4.585-4.586
		C378.136,384.672,379.928,387.859,379.729,391.244z M379.729,345.396c0.198,3.383-1.594,6.57-4.586,8.162
		c0-2.531-2.052-4.586-4.585-4.586c-2.528,0-4.583,2.055-4.583,4.586c-4.521-2.652-6.032-8.471-3.377-12.99
		c0.817-1.395,1.981-2.559,3.377-3.377c0,2.531,2.055,4.586,4.583,4.586c2.533,0,4.585-2.055,4.585-4.586
		C378.154,338.787,379.946,341.998,379.729,345.396z M379.729,299.551c0.198,3.383-1.594,6.572-4.586,8.16
		c0-2.531-2.052-4.582-4.585-4.582c-2.528,0-4.583,2.051-4.583,4.582c-4.521-2.652-6.032-8.469-3.377-12.986
		c0.817-1.396,1.981-2.559,3.377-3.377c0,2.531,2.055,4.582,4.583,4.582c2.533,0,4.585-2.051,4.585-4.582
		C378.154,292.941,379.946,296.152,379.729,299.551z M150.502,253.707c0.199,3.383-1.593,6.57-4.585,8.16
		c-0.48-2.131-2.399-3.629-4.584-3.576c-2.185-0.053-4.104,1.445-4.584,3.576c-4.52-2.654-6.032-8.47-3.378-12.988
		c0.819-1.396,1.983-2.56,3.378-3.379c0.462,2.15,2.385,3.671,4.584,3.621c2.185,0.055,4.104-1.442,4.584-3.575
		C148.91,247.137,150.701,250.324,150.502,253.707z M379.729,253.707c0.198,3.383-1.594,6.57-4.586,8.16
		c0-2.533-2.052-4.584-4.585-4.584c-2.528,0-4.583,2.051-4.583,4.584c-4.521-2.654-6.032-8.47-3.377-12.988
		c0.817-1.396,1.981-2.56,3.377-3.379c0,2.533,2.055,4.584,4.583,4.584c2.533,0,4.585-2.051,4.585-4.584
		C378.154,247.097,379.946,250.308,379.729,253.707z"/>
</g>
</svg>
