<?xml version="1.0" encoding="utf-8"?>
<!-- Generator: Adobe Illustrator 16.0.4, SVG Export Plug-In . SVG Version: 6.00 Build 0)  -->
<!DOCTYPE svg PUBLIC "-//W3C//DTD SVG 1.1//EN" "http://www.w3.org/Graphics/SVG/1.1/DTD/svg11.dtd">
<svg version="1.1" id="Layer_1" xmlns="http://www.w3.org/2000/svg" xmlns:xlink="http://www.w3.org/1999/xlink" x="0px" y="0px"
	 width="512px" height="512px" viewBox="0 0 512 512" enable-background="new 0 0 512 512" xml:space="preserve">
<rect x="-1" y="-1" fill="#363151" width="513" height="513"/>
<g>
	<path fill="#FFFFFF" d="M336.646,152.301l-2.401,1.235c2.896,5.558,3.541,12.016,1.802,18.036
		c-2.984-2.252-5.092-5.471-5.967-9.106l-2.398,1.235c-1.931,7.292-5.019,14.227-9.142,20.542l0.669,2.577
		c2.49-1.276,5.251-1.941,8.048-1.941c0.96,0.004,1.913,0.087,2.859,0.248c-3.48,8.264-13,12.144-21.263,8.664
		c-3.538-1.489-6.435-4.184-8.173-7.605c1.971-0.927,3.402-2.711,3.883-4.835c0.67-3.07-1.271-4.518-0.601-7.624
		c0.709-3.077,3.78-4.996,6.857-4.285c2.283,0.527,4.014,2.393,4.366,4.709c3.481-2.041,4.649-6.518,2.608-9.998
		c-2.041-3.481-6.517-4.649-9.997-2.608c-0.551,0.323-1.056,0.716-1.506,1.17c1.056-1.577,1.81-3.337,2.224-5.188
		c0.918-4.455-0.139-9.088-2.894-12.707c-4.166,2.14-7.165,6.019-8.188,10.588c-0.409,1.856-0.469,3.77-0.177,5.647
		c-1.414-3.779-5.622-5.697-9.403-4.283c-3.78,1.414-5.698,5.624-4.283,9.402c0.205,0.548,0.475,1.068,0.805,1.552
		c1.723-2.646,5.267-3.392,7.91-1.667c1.938,1.261,2.922,3.561,2.501,5.833c-0.671,3.071-3.07,3.53-3.741,6.671
		c-0.368,1.741-0.066,3.556,0.848,5.083l0.389,0.6c-8.226,6.414-20.09,4.947-26.504-3.277c-2.55-3.271-3.953-7.292-3.992-11.44
		v-1.694c5.828,0.927,11.161,3.831,15.105,8.224l2.012-2.012V151.42l-2.048-2.047c-3.938,4.373-9.258,7.263-15.069,8.189
		c-0.019-8.049,5.411-15.09,13.2-17.119l-2.082-2.082c-5.602-0.4-11.249-0.6-16.943-0.6c-5.693,0-11.342,0.201-16.941,0.6
		l-2.082,2.082c7.775,2.026,13.202,9.048,13.2,17.083c-5.812-0.926-11.132-3.816-15.071-8.188l-2.047,2.046v22.589l2.012,2.011
		c3.943-4.393,9.277-7.296,15.106-8.224v1.765c-0.005,10.429-8.462,18.879-18.891,18.876c-4.158-0.001-8.2-1.376-11.499-3.911
		l0.317-0.635c0.923-1.537,1.226-3.366,0.848-5.117c-0.669-3.071-3.07-3.53-3.741-6.671c-0.674-3.085,1.281-6.133,4.366-6.806
		c2.321-0.507,4.714,0.474,6.011,2.465c2.271-3.336,1.407-7.88-1.929-10.15c-3.336-2.271-7.881-1.408-10.15,1.928
		c-0.329,0.483-0.599,1.004-0.803,1.551c0.278-1.879,0.207-3.795-0.213-5.647c-1.021-4.569-4.021-8.449-8.188-10.588
		c-2.885,3.681-3.983,8.452-2.999,13.024c0.414,1.852,1.168,3.612,2.223,5.188c-2.835-2.872-7.46-2.902-10.332-0.066
		c-2.871,2.835-2.901,7.46-0.067,10.333c0.449,0.453,0.955,0.848,1.506,1.169c0.476-3.122,3.393-5.267,6.514-4.791
		c2.316,0.353,4.183,2.084,4.71,4.367c0.671,3.071-1.271,4.517-0.601,7.624c0.479,2.124,1.912,3.909,3.882,4.835
		c-4.193,7.926-14.018,10.952-21.943,6.757c-3.271-1.73-5.852-4.525-7.315-7.922c0.944-0.16,1.9-0.242,2.859-0.247
		c2.798-0.001,5.557,0.666,8.047,1.941l0.672-2.577c-4.194-6.325-7.34-13.285-9.319-20.612l-2.259-1.376
		c-0.872,3.635-2.981,6.854-5.964,9.106c-1.74-6.02-1.096-12.479,1.8-18.036l-2.401-1.235c-4.2,1.447-9.882,3.741-14.117,5.577
		l24.212,54.39c44.89-19.928,96.116-19.928,141.004,0l24.283-54.39C346.528,156.042,340.844,153.749,336.646,152.301z"/>
	<path fill="#FFFFFF" d="M358.315,254.234c0.199-6.519-4.234-12.267-10.59-13.73v-7.836c7.587-1.812,12.265-9.426,10.454-17.01
		c-1.54-6.447-7.356-10.954-13.984-10.836c-6.521-0.214-12.277,4.227-13.729,10.587H181.451c-1.463-6.353-7.214-10.788-13.73-10.587
		c-7.579-0.218-13.9,5.75-14.117,13.33c-0.008,0.263-0.008,0.525,0,0.787c-0.201,6.518,4.234,12.267,10.588,13.729v7.871
		c-7.572,1.857-12.207,9.5-10.351,17.074c1.252,5.109,5.24,9.098,10.351,10.351v7.872c-7.572,1.854-12.207,9.5-10.351,17.071
		c1.252,5.109,5.24,9.1,10.351,10.353v7.87c-7.572,1.857-12.207,9.5-10.351,17.074c1.252,5.107,5.24,9.099,10.351,10.351v7.869
		c-7.563,1.897-12.159,9.563-10.265,17.127c1.583,6.318,7.281,10.732,13.794,10.687c7.795,0.138,14.228-6.069,14.366-13.865
		c0.118-6.627-4.391-12.443-10.838-13.981v-7.836c7.573-1.856,12.208-9.5,10.352-17.073c-1.252-5.11-5.241-9.099-10.352-10.352
		v-7.87c7.573-1.857,12.208-9.501,10.352-17.074c-1.252-5.11-5.241-9.097-10.352-10.35v-7.872c7.573-1.855,12.208-9.5,10.352-17.074
		c-1.252-5.109-5.241-9.098-10.352-10.351v-7.871c5.087-1.142,9.059-5.113,10.201-10.2h7.447v151.769h1.623
		c3.602-10.813,9.021-20.936,16.023-29.929v-1.835h-7.059v-21.178h17.647v21.178h-3.528v1.939
		c4.698,9.421,8.025,19.464,9.882,29.824h1.376c1.868-10.363,5.208-20.406,9.919-29.824v-1.939h-3.53v-21.178h17.647v21.178h-3.529
		v1.939c4.699,9.421,8.026,19.464,9.883,29.824h1.377c1.868-10.363,5.206-20.406,9.918-29.824v-1.939h-3.529v-21.178h17.647v21.178
		h-3.528v1.939c4.696,9.421,8.025,19.464,9.881,29.824h1.377c1.868-10.363,5.209-20.406,9.92-29.824v-1.939h-3.53v-21.178h17.648
		v21.178h-7.061v1.835c7.004,8.993,12.422,19.115,16.024,29.929h1.624V222.468h7.446c1.135,5.09,5.111,9.065,10.2,10.2v7.871
		c-7.573,1.857-12.207,9.5-10.351,17.074c1.253,5.109,5.244,9.099,10.351,10.352v7.871c-7.573,1.854-12.207,9.5-10.351,17.071
		c1.253,5.11,5.244,9.1,10.351,10.353v7.87c-7.573,1.857-12.207,9.501-10.351,17.075c1.253,5.107,5.244,9.098,10.351,10.35v7.87
		c-7.55,1.951-12.089,9.651-10.139,17.201c1.947,7.551,9.648,12.089,17.197,10.14c7.551-1.948,12.092-9.65,10.142-17.2
		c-1.285-4.973-5.168-8.855-10.142-10.141v-7.87c7.574-1.855,12.208-9.5,10.354-17.073c-1.253-5.109-5.243-9.099-10.354-10.352
		v-7.87c7.574-1.857,12.208-9.5,10.354-17.074c-1.253-5.109-5.243-9.097-10.354-10.35v-7.871
		C354.081,266.501,358.515,260.749,358.315,254.234z M174.78,360.12c0.221,3.678-2.582,6.837-6.259,7.058
		c-0.267,0.016-0.534,0.016-0.801,0c-3.895,0.181-7.197-2.831-7.377-6.728c-0.128-2.767,1.378-5.355,3.849-6.614
		c0.369,1.642,1.847,2.795,3.528,2.753c1.683,0.042,3.16-1.111,3.529-2.753C173.555,355.06,174.934,357.514,174.78,360.12z
		 M174.78,324.823c0.153,2.604-1.227,5.057-3.53,6.283c-0.369-1.645-1.847-2.794-3.529-2.753c-1.682-0.041-3.159,1.108-3.528,2.753
		c-3.48-2.042-4.645-6.522-2.601-10.001c0.63-1.074,1.526-1.971,2.601-2.6c0.355,1.655,1.836,2.825,3.528,2.789
		c1.683,0.039,3.16-1.112,3.529-2.753C173.555,319.766,174.934,322.22,174.78,324.823z M174.78,289.527
		c0.153,2.604-1.227,5.06-3.53,6.282c-0.369-1.641-1.847-2.792-3.529-2.753c-1.682-0.039-3.159,1.112-3.528,2.753
		c-3.48-2.042-4.645-6.52-2.601-9.997c0.63-1.075,1.526-1.971,2.601-2.601c0.355,1.656,1.836,2.824,3.528,2.786
		c1.683,0.043,3.16-1.109,3.529-2.753C173.555,284.47,174.934,286.926,174.78,289.527z M171.25,225.22
		c-0.369-1.642-1.847-2.793-3.529-2.753c-1.682-0.042-3.159,1.111-3.528,2.753c-3.475-1.769-4.856-6.02-3.087-9.494
		c1.259-2.471,3.847-3.976,6.616-3.848c3.895-0.18,7.197,2.833,7.377,6.727C175.226,221.375,173.721,223.962,171.25,225.22z
		 M217.135,310.705h-17.647v-21.178h17.647V310.705z M217.135,278.94h-17.647v-21.178h17.647V278.94z M217.135,247.174h-17.647
		v-21.177h17.647V247.174z M248.9,310.705h-17.647v-21.178H248.9V310.705z M248.9,278.94h-17.647v-21.178H248.9V278.94z
		 M248.9,247.174h-17.647v-21.177H248.9V247.174z M280.666,310.705h-17.647v-21.178h17.647V310.705z M280.666,278.94h-17.647
		v-21.178h17.647V278.94z M280.666,247.174h-17.647v-21.177h17.647V247.174z M312.433,310.705h-17.648v-21.178h17.648V310.705z
		 M312.433,278.94h-17.648v-21.178h17.648V278.94z M312.433,247.174h-17.648v-21.177h17.648V247.174z M337.14,218.938
		c0.094-3.897,3.328-6.981,7.227-6.886c3.896,0.095,6.98,3.33,6.887,7.228c-0.061,2.46-1.396,4.711-3.526,5.941
		c0-1.949-1.58-3.529-3.53-3.529c-1.945,0-3.528,1.58-3.528,3.529C338.363,223.997,336.984,221.542,337.14,218.938z M351.256,360.12
		c-0.093,3.896-3.33,6.98-7.228,6.884c-3.897-0.094-6.979-3.329-6.885-7.227c0.057-2.459,1.394-4.71,3.523-5.942
		c0,1.948,1.583,3.531,3.528,3.531c1.95,0,3.53-1.583,3.53-3.531C350.03,355.06,351.409,357.514,351.256,360.12z M351.256,324.823
		c0.153,2.604-1.227,5.057-3.53,6.283c0-1.948-1.58-3.53-3.53-3.53c-1.945,0-3.528,1.582-3.528,3.53
		c-3.479-2.042-4.643-6.522-2.6-10.001c0.629-1.074,1.525-1.971,2.6-2.6c0,1.949,1.583,3.53,3.528,3.53c1.95,0,3.53-1.581,3.53-3.53
		C350.044,319.734,351.424,322.206,351.256,324.823z M351.256,289.527c0.153,2.604-1.227,5.06-3.53,6.282
		c0-1.948-1.58-3.527-3.53-3.527c-1.945,0-3.528,1.579-3.528,3.527c-3.479-2.042-4.643-6.52-2.6-9.997
		c0.629-1.075,1.525-1.971,2.6-2.601c0,1.949,1.583,3.528,3.528,3.528c1.95,0,3.53-1.579,3.53-3.528
		C350.044,284.439,351.424,286.911,351.256,289.527z M174.78,254.234c0.153,2.604-1.227,5.058-3.53,6.282
		c-0.369-1.64-1.847-2.793-3.529-2.753c-1.682-0.04-3.159,1.113-3.528,2.753c-3.48-2.043-4.645-6.521-2.601-9.999
		c0.63-1.075,1.526-1.971,2.601-2.602c0.355,1.655,1.836,2.826,3.528,2.788c1.683,0.042,3.16-1.11,3.529-2.753
		C173.555,249.176,174.934,251.629,174.78,254.234z M351.256,254.234c0.153,2.604-1.227,5.058-3.53,6.282
		c0-1.95-1.58-3.528-3.53-3.528c-1.945,0-3.528,1.578-3.528,3.528c-3.479-2.043-4.643-6.521-2.6-9.999
		c0.629-1.075,1.525-1.971,2.6-2.602c0,1.95,1.583,3.529,3.528,3.529c1.95,0,3.53-1.579,3.53-3.529
		C350.044,249.145,351.424,251.617,351.256,254.234z"/>
</g>
</svg>
