<?xml version="1.0" encoding="utf-8"?>
<!-- Generator: Adobe Illustrator 16.0.4, SVG Export Plug-In . SVG Version: 6.00 Build 0)  -->
<!DOCTYPE svg PUBLIC "-//W3C//DTD SVG 1.0//EN" "http://www.w3.org/TR/2001/REC-SVG-20010904/DTD/svg10.dtd">
<svg version="1.0" id="Layer_1" xmlns="http://www.w3.org/2000/svg" xmlns:xlink="http://www.w3.org/1999/xlink" x="0px" y="0px"
	 width="596.248px" height="122.992px" viewBox="0 0 596.248 122.992" enable-background="new 0 0 596.248 122.992"
	 xml:space="preserve">
<rect fill="#363151" width="122.992" height="122.992"/>
<g>
	<path fill="#FFFFFF" d="M80.869,36.585l-0.577,0.297c0.695,1.334,0.85,2.887,0.432,4.332c-0.717-0.54-1.223-1.313-1.433-2.187
		l-0.576,0.297c-0.464,1.751-1.206,3.417-2.196,4.934l0.161,0.62c0.597-0.307,1.261-0.467,1.933-0.467
		c0.23,0.001,0.459,0.021,0.688,0.061c-0.837,1.985-3.124,2.917-5.109,2.081c-0.849-0.357-1.545-1.005-1.963-1.826
		c0.474-0.223,0.817-0.651,0.933-1.162c0.161-0.737-0.306-1.085-0.145-1.831c0.17-0.739,0.909-1.2,1.647-1.03
		c0.549,0.126,0.964,0.575,1.049,1.132c0.837-0.491,1.117-1.566,0.627-2.403c-0.491-0.835-1.566-1.117-2.402-0.626
		c-0.133,0.078-0.253,0.172-0.362,0.281c0.253-0.378,0.436-0.802,0.535-1.247c0.22-1.071-0.033-2.183-0.695-3.052
		c-1.001,0.514-1.721,1.446-1.966,2.543c-0.099,0.447-0.114,0.906-0.043,1.356c-0.34-0.907-1.351-1.368-2.259-1.029
		c-0.907,0.34-1.368,1.352-1.029,2.259c0.05,0.131,0.115,0.257,0.194,0.373c0.413-0.635,1.265-0.815,1.899-0.4
		c0.465,0.303,0.703,0.855,0.601,1.4c-0.161,0.738-0.737,0.848-0.898,1.603c-0.089,0.418-0.017,0.854,0.204,1.221l0.094,0.145
		c-1.977,1.541-4.826,1.188-6.367-0.788c-0.614-0.785-0.95-1.751-0.959-2.748v-0.406c1.4,0.222,2.68,0.92,3.628,1.976l0.483-0.484
		v-5.435l-0.492-0.492c-0.947,1.05-2.225,1.744-3.62,1.967c-0.005-1.933,1.299-3.625,3.171-4.112l-0.5-0.5
		c-1.346-0.096-2.702-0.144-4.07-0.144c-1.367,0-2.725,0.047-4.069,0.144l-0.5,0.5c1.867,0.487,3.171,2.173,3.171,4.104
		c-1.396-0.222-2.674-0.917-3.62-1.966l-0.492,0.491v5.427l0.482,0.483c0.948-1.056,2.229-1.752,3.629-1.976v0.423
		c-0.002,2.506-2.033,4.536-4.538,4.535c-0.999,0-1.97-0.33-2.763-0.94l0.077-0.153c0.221-0.368,0.294-0.808,0.204-1.229
		c-0.161-0.737-0.737-0.847-0.899-1.602c-0.161-0.741,0.308-1.474,1.05-1.636c0.557-0.122,1.132,0.115,1.443,0.593
		c0.545-0.801,0.338-1.894-0.463-2.438c-0.802-0.545-1.894-0.338-2.438,0.463c-0.079,0.117-0.144,0.242-0.193,0.373
		c0.067-0.451,0.05-0.911-0.051-1.356c-0.245-1.097-0.965-2.029-1.966-2.543c-0.693,0.884-0.957,2.03-0.721,3.128
		c0.099,0.445,0.281,0.868,0.535,1.247c-0.682-0.689-1.793-0.698-2.483-0.016c-0.689,0.681-0.697,1.792-0.016,2.482
		c0.109,0.109,0.23,0.204,0.362,0.28c0.115-0.75,0.815-1.265,1.565-1.15c0.557,0.084,1.004,0.501,1.131,1.048
		c0.162,0.739-0.305,1.086-0.144,1.833c0.114,0.51,0.459,0.938,0.933,1.161c-1.008,1.904-3.368,2.631-5.272,1.624
		c-0.786-0.416-1.405-1.088-1.757-1.904c0.227-0.039,0.456-0.058,0.687-0.059c0.672,0,1.335,0.16,1.934,0.466l0.161-0.619
		c-1.008-1.52-1.763-3.191-2.238-4.952l-0.543-0.331c-0.209,0.874-0.716,1.647-1.433,2.188c-0.418-1.447-0.263-2.999,0.433-4.333
		l-0.578-0.296c-1.008,0.347-2.374,0.898-3.391,1.339l5.817,13.066c10.784-4.787,23.089-4.787,33.871,0l5.833-13.066
		C83.243,37.484,81.877,36.934,80.869,36.585z"/>
	<path fill="#FFFFFF" d="M86.074,61.072c0.047-1.566-1.017-2.947-2.544-3.298v-1.882c1.823-0.436,2.947-2.265,2.512-4.087
		c-0.371-1.548-1.768-2.631-3.359-2.603c-1.567-0.051-2.949,1.015-3.298,2.544H43.588c-0.352-1.526-1.734-2.591-3.298-2.544
		c-1.821-0.052-3.339,1.382-3.391,3.203c-0.002,0.062-0.002,0.126,0,0.188c-0.049,1.566,1.017,2.947,2.544,3.299v1.891
		c-1.82,0.445-2.933,2.281-2.487,4.101c0.301,1.228,1.259,2.185,2.487,2.486v1.891c-1.82,0.446-2.933,2.283-2.487,4.102
		c0.301,1.227,1.259,2.185,2.487,2.486v1.892c-1.82,0.445-2.933,2.282-2.487,4.102c0.301,1.227,1.259,2.185,2.487,2.486v1.89
		c-1.817,0.456-2.921,2.297-2.467,4.115c0.38,1.517,1.749,2.578,3.314,2.567c1.873,0.034,3.417-1.458,3.451-3.331
		c0.028-1.591-1.056-2.988-2.604-3.357v-1.883c1.819-0.446,2.933-2.283,2.487-4.101c-0.301-1.228-1.259-2.186-2.487-2.487v-1.89
		c1.819-0.447,2.933-2.283,2.487-4.102c-0.301-1.228-1.259-2.185-2.487-2.486v-1.891c1.819-0.446,2.933-2.283,2.487-4.102
		c-0.301-1.227-1.259-2.185-2.487-2.486v-1.891c1.222-0.274,2.176-1.228,2.45-2.45h1.789v36.458h0.39
		c0.865-2.597,2.167-5.029,3.85-7.189v-0.44h-1.697v-5.088h4.239v5.088h-0.847v0.465c1.128,2.263,1.927,4.676,2.374,7.164h0.331
		c0.448-2.489,1.25-4.901,2.382-7.164V82.27H55.55v-5.088h4.24v5.088h-0.847v0.465c1.128,2.263,1.928,4.676,2.374,7.164h0.331
		c0.448-2.489,1.25-4.901,2.382-7.164V82.27h-0.847v-5.088h4.239v5.088h-0.848v0.465c1.129,2.263,1.928,4.676,2.374,7.164h0.331
		c0.449-2.489,1.251-4.901,2.383-7.164V82.27h-0.848v-5.088h4.239v5.088h-1.695v0.44c1.682,2.161,2.984,4.592,3.85,7.189h0.389
		V53.441h1.79c0.272,1.222,1.228,2.177,2.45,2.45v1.891c-1.82,0.445-2.933,2.281-2.486,4.101c0.301,1.228,1.259,2.186,2.486,2.487
		v1.89c-1.82,0.446-2.933,2.283-2.486,4.102c0.301,1.227,1.259,2.185,2.486,2.486v1.892c-1.82,0.445-2.933,2.282-2.486,4.102
		c0.301,1.227,1.259,2.185,2.486,2.486v1.89c-1.814,0.469-2.904,2.319-2.436,4.133c0.467,1.813,2.317,2.904,4.131,2.435
		c1.813-0.468,2.905-2.318,2.437-4.132c-0.309-1.194-1.242-2.127-2.437-2.437v-1.89c1.819-0.446,2.933-2.283,2.487-4.101
		c-0.301-1.228-1.259-2.186-2.487-2.487v-1.892c1.819-0.445,2.933-2.281,2.487-4.102c-0.301-1.227-1.259-2.185-2.487-2.486v-1.89
		C85.057,64.019,86.123,62.637,86.074,61.072z M41.985,86.508c0.053,0.883-0.62,1.642-1.503,1.696c-0.063,0.003-0.128,0.003-0.192,0
		c-0.937,0.042-1.729-0.681-1.772-1.617c-0.031-0.664,0.331-1.286,0.925-1.588c0.088,0.395,0.443,0.671,0.847,0.661
		c0.404,0.01,0.759-0.267,0.847-0.661C41.691,85.292,42.022,85.882,41.985,86.508z M41.985,78.029
		c0.037,0.625-0.295,1.214-0.848,1.509c-0.088-0.396-0.443-0.671-0.847-0.661c-0.404-0.01-0.759,0.265-0.847,0.661
		c-0.837-0.491-1.117-1.567-0.625-2.403c0.151-0.258,0.366-0.473,0.625-0.625c0.084,0.398,0.441,0.68,0.847,0.67
		c0.404,0.009,0.759-0.268,0.847-0.661C41.691,76.813,42.022,77.404,41.985,78.029z M41.985,69.55
		c0.037,0.625-0.295,1.215-0.848,1.509c-0.088-0.395-0.443-0.671-0.847-0.661c-0.404-0.01-0.759,0.267-0.847,0.661
		c-0.837-0.491-1.117-1.566-0.625-2.402c0.151-0.258,0.366-0.473,0.625-0.625c0.084,0.398,0.441,0.678,0.847,0.669
		c0.404,0.01,0.759-0.267,0.847-0.661C41.691,68.335,42.022,68.925,41.985,69.55z M41.137,54.102
		c-0.088-0.395-0.443-0.671-0.847-0.661c-0.404-0.011-0.759,0.266-0.847,0.661c-0.836-0.425-1.167-1.445-0.742-2.281
		c0.302-0.592,0.924-0.955,1.589-0.923c0.935-0.044,1.729,0.68,1.772,1.616C42.093,53.179,41.731,53.8,41.137,54.102z M52.16,74.638
		h-4.24V69.55h4.24V74.638z M52.16,67.007h-4.24v-5.088h4.24V67.007z M52.16,59.375h-4.24v-5.086h4.24V59.375z M59.791,74.638
		h-4.239V69.55h4.239V74.638z M59.791,67.007h-4.239v-5.088h4.239V67.007z M59.791,59.375h-4.239v-5.086h4.239V59.375z
		 M67.421,74.638h-4.24V69.55h4.24V74.638z M67.421,67.007h-4.24v-5.088h4.24V67.007z M67.421,59.375h-4.24v-5.086h4.24V59.375z
		 M75.052,74.638h-4.239V69.55h4.239V74.638z M75.052,67.007h-4.239v-5.088h4.239V67.007z M75.052,59.375h-4.239v-5.086h4.239
		V59.375z M80.987,52.593c0.023-0.936,0.799-1.677,1.736-1.654s1.677,0.8,1.655,1.736c-0.015,0.591-0.336,1.132-0.847,1.427
		c0-0.467-0.38-0.847-0.849-0.847c-0.466,0-0.847,0.38-0.847,0.847C81.281,53.808,80.95,53.219,80.987,52.593z M84.378,86.508
		c-0.022,0.935-0.8,1.676-1.736,1.654c-0.936-0.023-1.677-0.8-1.654-1.736c0.014-0.591,0.334-1.132,0.846-1.428
		c0,0.469,0.38,0.848,0.847,0.848c0.469,0,0.848-0.379,0.848-0.848C84.084,85.292,84.415,85.882,84.378,86.508z M84.378,78.029
		c0.037,0.625-0.295,1.214-0.849,1.509c0-0.468-0.378-0.848-0.847-0.848c-0.468,0-0.848,0.38-0.848,0.848
		C81,79.047,80.72,77.971,81.21,77.135c0.15-0.258,0.366-0.473,0.624-0.625c0,0.469,0.38,0.849,0.848,0.849
		c0.469,0,0.847-0.38,0.847-0.849C84.088,76.807,84.419,77.4,84.378,78.029z M84.378,69.55c0.037,0.625-0.295,1.215-0.849,1.509
		c0-0.468-0.378-0.847-0.847-0.847c-0.468,0-0.848,0.379-0.848,0.847C81,70.568,80.72,69.493,81.21,68.657
		c0.15-0.258,0.366-0.473,0.624-0.625c0,0.469,0.38,0.848,0.848,0.848c0.469,0,0.847-0.379,0.847-0.848
		C84.088,68.328,84.419,68.921,84.378,69.55z M41.985,61.072c0.037,0.625-0.295,1.215-0.848,1.509
		c-0.088-0.395-0.443-0.671-0.847-0.662c-0.404-0.009-0.759,0.268-0.847,0.662c-0.837-0.491-1.117-1.567-0.625-2.403
		c0.151-0.258,0.366-0.473,0.625-0.625c0.084,0.398,0.441,0.68,0.847,0.67c0.404,0.01,0.759-0.266,0.847-0.661
		C41.691,59.856,42.022,60.446,41.985,61.072z M84.378,61.072c0.037,0.625-0.295,1.215-0.849,1.509c0-0.469-0.378-0.847-0.847-0.847
		c-0.468,0-0.848,0.378-0.848,0.847C81,62.09,80.72,61.014,81.21,60.178c0.15-0.258,0.366-0.473,0.624-0.625
		c0,0.469,0.38,0.849,0.848,0.849c0.469,0,0.847-0.38,0.847-0.849C84.088,59.85,84.419,60.443,84.378,61.072z"/>
</g>
<path fill="#616160" d="M155.985,72.763l-3.66,8.314h-6.589l16.103-36.549h6.589l16.104,36.549h-6.587l-3.661-8.314H155.985z
	 M171.774,67.065l-6.639-15.059l-6.64,15.059H171.774z"/>
<path fill="#616160" d="M194.623,81.077h-5.855V42.281h5.855V81.077z"/>
<path fill="#616160" d="M228.974,69.731h-21.803c0.139,2.021,1.062,3.651,2.771,4.889c1.708,1.238,3.659,1.855,5.857,1.855
	c3.484,0,6.133-1.098,7.945-3.293l3.348,3.659c-2.998,3.104-6.902,4.655-11.712,4.655c-3.905,0-7.226-1.3-9.963-3.895
	c-2.734-2.598-4.104-6.083-4.104-10.459c0-4.372,1.394-7.851,4.184-10.429c2.788-2.581,6.074-3.87,9.856-3.87
	c3.78,0,6.997,1.143,9.646,3.425c2.648,2.283,3.974,5.43,3.974,9.438V69.731z M207.171,65.129h15.945
	c0-2.333-0.731-4.129-2.195-5.385c-1.463-1.255-3.268-1.882-5.412-1.882c-2.142,0-4.069,0.653-5.776,1.961
	C208.024,61.129,207.171,62.899,207.171,65.129z"/>
<path fill="#616160" d="M239.275,53.261l5.96,9.149l6.169-9.149h6.956l-9.726,13.593l10.143,14.223h-7.215l-6.64-9.255l-6.485,9.255
	h-6.848l9.881-14.17l-9.358-13.646H239.275z"/>
<path fill="#616160" d="M286.279,81.077h-5.334v-3.712c-2.3,2.755-5.385,4.131-9.255,4.131c-2.893,0-5.289-0.819-7.189-2.457
	c-1.898-1.639-2.848-3.826-2.848-6.563c0-2.736,1.011-4.783,3.032-6.143c2.021-1.359,4.757-2.041,8.207-2.041h7.584v-1.044
	c0-3.696-2.059-5.542-6.171-5.542c-2.581,0-5.264,0.939-8.053,2.823l-2.612-3.662c3.379-2.683,7.214-4.025,11.501-4.025
	c3.276,0,5.952,0.828,8.027,2.483c2.073,1.657,3.11,4.261,3.11,7.816V81.077z M280.423,70.724v-2.353h-6.588
	c-4.218,0-6.327,1.325-6.327,3.974c0,1.359,0.523,2.396,1.568,3.111c1.046,0.714,2.502,1.072,4.367,1.072s3.494-0.524,4.888-1.568
	C279.725,73.914,280.423,72.503,280.423,70.724z"/>
<path fill="#363151" d="M334.194,47.796c2.569,2.181,3.846,5.525,3.846,10.04c0,4.515-1.319,7.816-3.948,9.908
	c-2.63,2.092-6.647,3.138-12.051,3.138h-4.859v10.196h-8.158V44.528h12.916C327.548,44.528,331.632,45.619,334.194,47.796z
	 M328.211,62.176c0.979-1.098,1.464-2.702,1.464-4.811c0-2.109-0.639-3.608-1.906-4.498c-1.276-0.889-3.251-1.332-5.94-1.332h-4.646
	v12.287h5.489C325.385,63.823,327.231,63.274,328.211,62.176z"/>
<path fill="#363151" d="M367.06,81.077h-7.373v-3.398c-2.022,2.545-4.52,3.817-7.502,3.817c-2.979,0-5.481-0.864-7.502-2.589
	c-2.021-1.725-3.034-4.025-3.034-6.901s1.048-5.027,3.136-6.457c2.094-1.43,4.954-2.145,8.578-2.145h5.856v-0.155
	c0-2.998-1.588-4.498-4.758-4.498c-1.362,0-2.801,0.271-4.315,0.811c-1.515,0.541-2.8,1.21-3.842,2.013l-3.506-5.073
	c3.697-2.683,7.913-4.025,12.654-4.025c3.416,0,6.203,0.855,8.366,2.562c2.16,1.708,3.241,4.411,3.241,8.104V81.077z
	 M359.166,70.358v-1.359h-4.914c-3.14,0-4.706,0.976-4.706,2.927c0,1.013,0.375,1.787,1.123,2.328c0.749,0.54,1.822,0.81,3.213,0.81
	c1.396,0,2.625-0.428,3.688-1.28C358.635,72.929,359.166,71.789,359.166,70.358z"/>
<path fill="#363151" d="M389.021,59.848c-2.335,0-4.08,0.83-5.229,2.485c-1.149,1.655-1.724,3.842-1.724,6.562v12.182h-7.847v-28.13
	h7.847v3.712c1.008-1.151,2.272-2.125,3.791-2.928c1.516-0.802,3.055-1.221,4.626-1.255l0.051,7.372H389.021z"/>
<path fill="#363151" d="M403.557,81.077h-7.847V42.281h7.847V81.077z"/>
<path fill="#363151" d="M411.632,49.366c-0.89-0.889-1.331-1.979-1.331-3.268c0-1.289,0.441-2.38,1.331-3.268
	c0.889-0.889,1.979-1.334,3.269-1.334c1.289,0,2.378,0.445,3.268,1.334c0.89,0.888,1.332,1.979,1.332,3.268
	c0,1.29-0.442,2.379-1.332,3.268c-0.89,0.887-1.979,1.332-3.268,1.332C413.61,50.698,412.521,50.253,411.632,49.366z
	 M418.822,81.077h-7.847v-28.13h7.847V81.077z"/>
<path fill="#363151" d="M450.141,81.077h-7.374v-3.398c-2.021,2.545-4.519,3.817-7.502,3.817c-2.979,0-5.48-0.864-7.503-2.589
	c-2.021-1.725-3.032-4.025-3.032-6.901s1.046-5.027,3.136-6.457c2.094-1.43,4.952-2.145,8.578-2.145h5.854v-0.155
	c0-2.998-1.587-4.498-4.757-4.498c-1.361,0-2.8,0.271-4.314,0.811c-1.516,0.541-2.8,1.21-3.843,2.013l-3.505-5.073
	c3.697-2.683,7.913-4.025,12.653-4.025c3.417,0,6.204,0.855,8.365,2.562c2.162,1.708,3.243,4.411,3.243,8.104V81.077z
	 M442.247,70.358v-1.359h-4.915c-3.141,0-4.705,0.976-4.705,2.927c0,1.013,0.375,1.787,1.123,2.328c0.748,0.54,1.82,0.81,3.213,0.81
	c1.395,0,2.625-0.428,3.688-1.28C441.716,72.929,442.247,71.789,442.247,70.358z"/>
<path fill="#363151" d="M483.135,65.914v15.163h-7.897V65.706c0-2.232-0.341-3.87-1.018-4.915c-0.681-1.047-1.779-1.57-3.298-1.57
	c-1.514,0-2.854,0.568-4.025,1.7c-1.166,1.134-1.748,2.798-1.748,4.994v15.163h-7.847v-28.13h7.847v3.189
	c2.157-2.438,4.633-3.659,7.424-3.659c1.775,0,3.388,0.523,4.834,1.568c1.447,1.047,2.536,2.319,3.269,3.817
	c1.08-1.707,2.535-3.031,4.366-3.974c1.83-0.94,3.667-1.411,5.519-1.411c3.311,0,5.975,0.985,7.999,2.953
	c2.021,1.97,3.029,4.821,3.029,8.551v17.097h-7.892V65.706c0-4.323-1.588-6.485-4.758-6.485c-1.57,0-2.929,0.568-4.08,1.7
	C483.709,62.055,483.135,63.719,483.135,65.914z"/>
<path fill="#363151" d="M533.067,76.998c-3.174,2.998-6.894,4.498-11.165,4.498c-4.269,0-7.8-1.317-10.587-3.949
	c-2.791-2.632-4.182-6.161-4.182-10.588c0-4.426,1.421-7.947,4.259-10.561c2.842-2.615,6.194-3.921,10.066-3.921
	c3.868,0,7.153,1.168,9.855,3.504c2.702,2.334,4.051,5.542,4.051,9.621v4.183h-20.496c0.247,1.535,1.046,2.79,2.408,3.764
	c1.357,0.976,2.893,1.463,4.6,1.463c2.752,0,5.021-0.923,6.795-2.77L533.067,76.998z M525.535,60.318
	c-1.08-0.906-2.395-1.359-3.948-1.359c-1.549,0-2.97,0.473-4.259,1.413s-2.038,2.214-2.246,3.817h12.339
	C527.242,62.517,526.617,61.228,525.535,60.318z"/>
<path fill="#363151" d="M548.858,65.391v15.686h-7.847v-28.13h7.847v3.138c2.37-2.406,5.033-3.608,7.999-3.608
	c2.962,0,5.447,1.045,7.451,3.136c2.003,2.094,3.004,4.882,3.004,8.368v17.097h-7.842V65.182c0-4.321-1.588-6.484-4.758-6.484
	c-1.569,0-2.936,0.567-4.106,1.7C549.44,61.531,548.858,63.195,548.858,65.391z"/>
<path fill="#363151" d="M583.363,58.593v12.601c0,1.081,0.275,1.928,0.838,2.536c0.557,0.611,1.216,0.915,1.986,0.915
	c1.465,0,2.698-0.662,3.711-1.987l2.928,5.491c-2.438,2.23-5.014,3.347-7.711,3.347c-2.702,0-4.987-0.889-6.85-2.667
	c-1.865-1.777-2.796-4.2-2.796-7.268V58.593h-3.298v-5.646h3.298v-8.418h7.894v8.418h6.795v5.646H583.363z"/>
</svg>
